<svg width="27" height="26" viewBox="0 0 27 26" fill="none" xmlns="http://www.w3.org/2000/svg">
<path d="M26.7114 13.1799C26.7109 16.018 25.7476 18.7757 23.9723 21.0208C22.1968 23.2662 19.7099 24.8719 16.9014 25.5867C14.0924 26.3015 11.1204 26.0848 8.45088 24.9705C5.78119 23.8565 3.5654 21.9077 2.1501 19.4298C0.735007 16.9521 0.200508 14.0852 0.630625 11.2784C1.0605 8.47182 2.43099 5.88384 4.52659 3.92048C4.84223 3.6244 5.29559 3.51538 5.71563 3.63456C6.13594 3.75374 6.45897 4.08321 6.56363 4.49847C6.66802 4.91399 6.53794 5.35219 6.2223 5.64833C4.16063 7.57947 2.97704 10.238 2.93604 13.0288C2.89505 15.8201 4.00049 18.5107 6.00444 20.4989C8.00867 22.4869 10.7443 23.6061 13.5994 23.6061C16.4541 23.6061 19.1896 22.487 21.1936 20.4989C23.1978 18.511 24.303 15.8204 24.2622 13.0288C24.2212 10.2377 23.0374 7.57919 20.976 5.64833C20.6603 5.35226 20.53 4.91405 20.6347 4.49847C20.739 4.08322 21.0623 3.75372 21.4824 3.63456C21.9027 3.51538 22.3558 3.6244 22.6714 3.92048C23.9537 5.11412 24.9733 6.55067 25.668 8.14305C26.3627 9.7351 26.7177 11.4493 26.7114 13.1801L26.7114 13.1799ZM13.5987 14.8238C13.9234 14.8238 14.2349 14.6977 14.4645 14.473C14.694 14.2485 14.823 13.9442 14.823 13.6267V1.19711C14.823 0.769298 14.5896 0.374102 14.2109 0.16033C13.8321 -0.0534432 13.3653 -0.0534432 12.9866 0.16033C12.6078 0.374102 12.3744 0.769311 12.3744 1.19711V13.6267C12.3744 13.9442 12.5034 14.2485 12.733 14.473C12.9625 14.6977 13.2741 14.8238 13.5987 14.8238Z" fill="#AEBED1"/>
</svg>
